<svg xmlns="http://www.w3.org/2000/svg" width="24" height="24" viewBox="0 0 24 24">
    <defs>
        <clipPath id="jmbhieznca">
            <path d="M0 0H24V24H0z"/>
        </clipPath>
    </defs>
    <g clip-path="url(#jmbhieznca)">
        <path fill="#076eff" d="M0 0H24V24H0z"/>
        <g>
            <path fill="none" d="M0 0h24v24H0z"/>
            <path fill="#fff" d="M8.5 14H14a.5.5 0 0 0 0-1h-4a2.5 2.5 0 1 1 0-5h1V6h2v2h2.5v2H10a.5.5 0 0 0 0 1h4a2.5 2.5 0 0 1 0 5h-1v2h-2v-2H8.5z"/>
        </g>
    </g>
</svg>
