<svg xmlns="http://www.w3.org/2000/svg" xmlns:xlink="http://www.w3.org/1999/xlink" width="24" height="24" viewBox="0 0 24 24">
  <defs>
    <style>
      .cls-1 {
        clip-path: url(#clip-Adult);
      }

      .cls-2 {
        fill: #fff;
      }

      .cls-3 {
        fill: none;
      }

      .cls-4 {
        fill: #ff7800;
      }
    </style>
    <clipPath id="clip-Adult">
      <rect width="24" height="24"/>
    </clipPath>
  </defs>
  <g id="Adult" class="cls-1">
    <g id="그룹_443" data-name="그룹 443" transform="translate(-10666 9695)">
      <rect id="사각형_1171" data-name="사각형 1171" class="cls-2" width="14" height="13" transform="translate(10671 -9691)"/>
      <g id="shield-user-fill" transform="translate(10666 -9695)">
        <path id="패스_501" data-name="패스 501" class="cls-3" d="M0,0H24V24H0Z"/>
        <path id="패스_502" data-name="패스 502" class="cls-4" d="M3.783,2.826,12,1l8.217,1.826A1,1,0,0,1,21,3.8v9.987a6,6,0,0,1-2.672,4.992L12,23,5.672,18.781A6,6,0,0,1,3,13.79V3.8a1,1,0,0,1,.783-.976ZM12,11A2.5,2.5,0,1,0,9.5,8.5,2.5,2.5,0,0,0,12,11ZM7.527,16h8.946a4.5,4.5,0,0,0-8.946,0Z"/>
      </g>
    </g>
  </g>
</svg>
